<?xml version="1.0" encoding="UTF-8" standalone="no"?>
<svg
   xmlns:ooo="http://xml.openoffice.org/svg/export"
   xmlns:dc="http://purl.org/dc/elements/1.1/"
   xmlns:cc="http://creativecommons.org/ns#"
   xmlns:rdf="http://www.w3.org/1999/02/22-rdf-syntax-ns#"
   xmlns:svg="http://www.w3.org/2000/svg"
   xmlns="http://www.w3.org/2000/svg"
   xmlns:sodipodi="http://sodipodi.sourceforge.net/DTD/sodipodi-0.dtd"
   xmlns:inkscape="http://www.inkscape.org/namespaces/inkscape"
   width="512.00006mm"
   height="151.8399mm"
   viewBox="0 0 512.00006 151.8399"
   version="1.1"
   id="svg8"
   sodipodi:docname="eo-tools-v2.3.svg"
   inkscape:version="1.0.1 (c497b03c, 2020-09-10)">
  <sodipodi:namedview
     pagecolor="#ffffff"
     bordercolor="#666666"
     borderopacity="1"
     objecttolerance="10"
     gridtolerance="10"
     guidetolerance="10"
     inkscape:pageopacity="0"
     inkscape:pageshadow="2"
     inkscape:window-width="1485"
     inkscape:window-height="787"
     id="namedview941"
     showgrid="false"
     inkscape:zoom="0.36793615"
     inkscape:cx="967.55917"
     inkscape:cy="286.94155"
     inkscape:window-x="0"
     inkscape:window-y="23"
     inkscape:window-maximized="0"
     inkscape:current-layer="svg8" />
  <defs
     id="defs2">
    <linearGradient
       id="gradient1"
       x1="14024"
       y1="5254"
       x2="14024"
       y2="9713"
       gradientUnits="userSpaceOnUse">
      <stop
         offset="0"
         style="stop-color:rgb(51,92,103)"
         id="stop883" />
      <stop
         offset="1"
         style="stop-color:rgb(34,58,64)"
         id="stop885" />
    </linearGradient>
  </defs>
  <metadata
     id="metadata5">
    <rdf:RDF>
      <cc:Work
         rdf:about="">
        <dc:format>image/svg+xml</dc:format>
        <dc:type
           rdf:resource="http://purl.org/dc/dcmitype/StillImage" />
        <dc:title></dc:title>
      </cc:Work>
    </rdf:RDF>
  </metadata>
  <g
     id="layer1"
     transform="translate(1998.6057,493.25887)">
    <g
       style="fill-rule:evenodd;stroke-width:28.222;stroke-linejoin:round"
       id="g1127"
       transform="matrix(0.03404482,0,0,0.03404482,-2220.0673,-672.13035)">
      <g
         ooo:name="page8"
         class="Page"
         id="g1010">
        <g
           class="com.sun.star.drawing.CustomShape"
           id="g895">
          <g
             id="id3">
            <rect
               class="BoundingBox"
               stroke="none"
               fill="none"
               x="6505"
               y="5254"
               width="15039"
               height="4460"
               id="rect881" />
            <g
               id="g892">
              <defs
                 id="defs888" />
              <path
                 style="fill:url(#gradient1)"
                 d="m 6914,5254 v 0 l -27,1 -26,3 -27,4 -26,6 -25,8 -25,9 -25,11 -23,13 -23,14 -22,16 -21,17 -19,18 -18,19 -17,21 -16,22 -14,23 -13,23 -11,25 -9,25 -8,25 -6,26 -4,27 -3,26 -1,27 v 3640 1 l 1,27 3,26 4,27 6,26 8,25 9,25 11,25 13,24 14,22 16,22 17,21 18,19 19,18 21,17 22,16 23,14 23,13 25,11 25,9 25,8 26,6 27,4 26,3 27,1 h 14220 v 0 l 27,-1 26,-3 27,-4 26,-6 25,-8 25,-9 25,-11 24,-13 22,-14 22,-16 21,-17 19,-18 18,-19 17,-21 16,-22 14,-22 13,-24 11,-25 9,-25 8,-25 6,-26 4,-27 3,-26 1,-27 v -3641 0 0 l -1,-27 -3,-26 -4,-27 -6,-26 -8,-25 -9,-25 -11,-25 -13,-23 -14,-23 -16,-22 -17,-21 -18,-19 -19,-18 -21,-17 -22,-16 -22,-14 -24,-13 -25,-11 -25,-9 -25,-8 -26,-6 -27,-4 -26,-3 -27,-1 z"
                 id="path890" />
            </g>
          </g>
        </g>
        <g
           class="Group"
           id="g995">
          <g
             class="com.sun.star.drawing.PolyPolygonShape"
             id="g902">
            <g
               id="id4">
              <rect
                 class="BoundingBox"
                 stroke="none"
                 fill="none"
                 x="8182"
                 y="8621"
                 width="355"
                 height="341"
                 id="rect897" />
              <path
                 fill="#ffffff"
                 stroke="none"
                 d="m 8495,8621 h 7 l 20,215 14,118 -34,7 -98,-35 -159,-83 -42,-28 -21,-41 160,-56 104,-55 z"
                 id="path899" />
            </g>
          </g>
          <g
             class="com.sun.star.drawing.PolyPolygonShape"
             id="g909">
            <g
               id="id5">
              <rect
                 class="BoundingBox"
                 stroke="none"
                 fill="none"
                 x="8592"
                 y="8176"
                 width="383"
                 height="869"
                 id="rect904" />
              <path
                 fill="#ffffff"
                 stroke="none"
                 d="m 8946,8176 21,7 7,28 -7,833 h -90 l -188,-28 -48,-21 v -76 l -42,-125 -7,-35 v -62 l 7,-49 v -118 l 56,-69 55,-49 208,-209 z"
                 id="path906" />
            </g>
          </g>
          <g
             class="com.sun.star.drawing.PolyPolygonShape"
             id="g916">
            <g
               id="id6">
              <rect
                 class="BoundingBox"
                 stroke="none"
                 fill="none"
                 x="9056"
                 y="7593"
                 width="1578"
                 height="1459"
                 id="rect911" />
              <path
                 fill="#ffffff"
                 stroke="none"
                 d="m 10550,7593 83,7 v 91 l -34,187 -42,139 -63,146 -55,104 -49,76 -90,118 -69,77 -35,41 -56,49 -69,62 -125,91 -111,62 -104,56 -181,69 -90,28 -181,35 -153,20 -20,-6 -7,-14 v -889 l -21,-35 v -14 l -21,-7 14,-34 49,-56 69,-77 48,-55 56,-56 42,-48 27,7 63,41 21,7 125,7 35,56 41,125 -7,35 -34,76 v 90 l 27,104 35,188 35,56 48,20 77,-7 76,-27 77,-49 48,-42 49,-55 55,-77 56,-111 48,-48 49,-77 14,-35 7,-83 -7,-76 35,-70 83,-90 62,-76 7,-49 z m -160,431 -48,41 -70,98 -41,76 -21,35 7,41 20,28 49,-7 49,-48 90,-167 14,-63 -14,-27 z"
                 id="path913" />
            </g>
          </g>
          <g
             class="com.sun.star.drawing.PolyPolygonShape"
             id="g923">
            <g
               id="id7">
              <rect
                 class="BoundingBox"
                 stroke="none"
                 fill="none"
                 x="7453"
                 y="7593"
                 width="613"
                 height="793"
                 id="rect918" />
              <path
                 fill="#ffffff"
                 stroke="none"
                 d="m 7460,7593 h 604 l -35,42 -55,48 -49,49 -21,-7 -35,-83 -20,-7 -14,34 v 167 l -56,63 -55,97 -21,76 -7,42 v 125 l 21,111 7,35 -35,-28 -70,-125 -62,-139 -62,-187 -35,-153 -7,-62 v -91 z"
                 id="path920" />
            </g>
          </g>
          <g
             class="com.sun.star.drawing.PolyPolygonShape"
             id="g930">
            <g
               id="id8">
              <rect
                 class="BoundingBox"
                 stroke="none"
                 fill="none"
                 x="9432"
                 y="7565"
                 width="945"
                 height="904"
                 id="rect925" />
              <path
                 fill="#ffffff"
                 stroke="none"
                 d="m 9515,7565 42,7 7,7 48,7 764,6 -7,42 -69,77 -63,97 -27,62 v 181 l -28,49 -63,62 -62,97 -62,91 -56,55 -69,42 -56,21 h -49 l -14,-21 -28,-202 -20,-76 7,-49 21,-48 6,-35 v -62 l -20,-84 -35,-90 -56,-62 -41,-21 -112,-7 -41,-28 v -28 l 55,-55 z"
                 id="path927" />
            </g>
          </g>
          <g
             class="com.sun.star.drawing.PolyPolygonShape"
             id="g937">
            <g
               id="id9">
              <rect
                 class="BoundingBox"
                 stroke="none"
                 fill="none"
                 x="7453"
                 y="7100"
                 width="744"
                 height="376"
                 id="rect932" />
              <path
                 fill="#ffffff"
                 stroke="none"
                 d="m 7495,7100 13,14 28,69 42,56 35,27 90,49 90,90 56,28 h 48 l 56,-28 41,-6 h 77 l 83,20 42,28 v 21 l -35,7 -319,-7 h -389 v -77 l 14,-138 z"
                 id="path934" />
            </g>
          </g>
          <g
             class="com.sun.star.drawing.PolyPolygonShape"
             id="g944">
            <g
               id="id10">
              <rect
                 class="BoundingBox"
                 stroke="none"
                 fill="none"
                 x="9647"
                 y="7016"
                 width="994"
                 height="452"
                 id="rect939" />
              <path
                 fill="#ffffff"
                 stroke="none"
                 d="m 10015,7016 28,7 21,14 42,7 117,7 28,83 84,146 55,84 49,41 h 69 l 77,-28 41,-21 14,84 v 27 h -895 l -77,-6 -21,-7 14,-35 70,-69 55,-49 146,-146 55,-90 z"
                 id="path941" />
            </g>
          </g>
          <g
             class="com.sun.star.drawing.PolyPolygonShape"
             id="g951">
            <g
               id="id11">
              <rect
                 class="BoundingBox"
                 stroke="none"
                 fill="none"
                 x="10092"
                 y="6898"
                 width="106"
                 height="50"
                 id="rect946" />
              <path
                 fill="#ffffff"
                 stroke="none"
                 d="m 10147,6898 35,7 14,21 v 21 h -83 l -21,-21 27,-21 z"
                 id="path948" />
            </g>
          </g>
          <g
             class="com.sun.star.drawing.PolyPolygonShape"
             id="g958">
            <g
               id="id12">
              <rect
                 class="BoundingBox"
                 stroke="none"
                 fill="none"
                 x="10244"
                 y="6780"
                 width="376"
                 height="522"
                 id="rect953" />
              <path
                 fill="#ffffff"
                 stroke="none"
                 d="m 10453,6780 27,28 63,132 48,153 28,125 v 76 l -35,-7 -48,14 h -42 l -35,-28 -69,-104 -76,-111 -7,-77 -42,-69 -21,-21 7,-21 146,-55 z"
                 id="path955" />
            </g>
          </g>
          <g
             class="com.sun.star.drawing.PolyPolygonShape"
             id="g965">
            <g
               id="id13">
              <rect
                 class="BoundingBox"
                 stroke="none"
                 fill="none"
                 x="7543"
                 y="5995"
                 width="1438"
                 height="1397"
                 id="rect960" />
              <path
                 fill="#ffffff"
                 stroke="none"
                 d="m 8564,5995 h 41 l 111,63 42,27 7,21 -35,70 v 90 l 42,63 21,13 h 69 l 42,-27 48,-35 h 14 l 7,368 7,35 -48,55 -153,153 -49,56 -125,125 -55,48 -222,222 -42,49 -77,-42 -97,-34 -41,-7 h -77 l -104,20 h -28 l -20,-76 -35,-28 14,-34 7,-49 -28,-28 -42,7 -14,14 -27,-7 -8,-7 v -62 l 28,-56 28,-14 77,7 48,70 14,13 h 55 l 42,-55 28,-83 97,-84 49,-41 48,-56 49,-49 56,-34 104,-35 104,-28 41,-28 42,-48 28,-63 v -76 l -28,-49 -21,-20 v -56 l 49,-83 v -63 l -28,-35 h -28 l -20,84 -28,34 h -14 l -28,-69 -14,-21 -35,14 -90,56 -118,62 -41,35 -28,48 v 70 l 28,28 h 55 l 49,-28 48,-63 42,-55 55,-35 h 14 l 77,146 7,7 v 41 l -42,63 -35,14 -104,28 -111,48 -83,63 -181,180 -41,70 -14,35 -35,-7 -56,-42 -27,-7 h -56 l -56,21 -34,35 -28,41 -7,21 v 97 l 42,63 -42,7 -42,-35 -28,-69 -27,-77 7,-42 42,-104 83,-152 83,-126 63,-76 62,-69 76,-77 35,-34 63,-56 104,-76 139,-84 118,-55 111,-35 z m -597,1118 -21,21 7,42 27,27 42,8 35,-21 7,-7 v -42 l -35,-28 z"
                 id="path962" />
            </g>
          </g>
          <g
             class="com.sun.star.drawing.PolyPolygonShape"
             id="g972">
            <g
               id="id14">
              <rect
                 class="BoundingBox"
                 stroke="none"
                 fill="none"
                 x="8793"
                 y="5933"
                 width="175"
                 height="322"
                 id="rect967" />
              <path
                 fill="#ffffff"
                 stroke="none"
                 d="m 8883,5933 h 77 l 7,7 v 236 l -70,42 -34,35 h -35 l -21,-21 v -49 l 28,-69 v -49 l -28,-35 -14,-7 v -55 l 7,-14 z"
                 id="path969" />
            </g>
          </g>
          <g
             class="com.sun.star.drawing.PolyPolygonShape"
             id="g979">
            <g
               id="id15">
              <rect
                 class="BoundingBox"
                 stroke="none"
                 fill="none"
                 x="9099"
                 y="5933"
                 width="292"
                 height="654"
                 id="rect974" />
              <path
                 fill="#ffffff"
                 stroke="none"
                 d="m 9106,5933 h 76 l 208,28 -6,48 -28,188 -7,125 -28,56 -62,69 -91,83 -48,56 -21,-7 v -632 z"
                 id="path976" />
            </g>
          </g>
          <g
             class="com.sun.star.drawing.PolyPolygonShape"
             id="g986">
            <g
               id="id16">
              <rect
                 class="BoundingBox"
                 stroke="none"
                 fill="none"
                 x="7820"
                 y="5586"
                 width="2863"
                 height="3022"
                 id="rect981" />
              <path
                 fill="#ffffff"
                 stroke="none"
                 d="m 10071,5586 90,7 28,14 -14,28 -83,83 -56,49 -97,97 -56,111 -13,76 7,77 27,76 56,76 69,49 90,35 h 133 l 83,-28 56,-42 62,-55 55,-70 84,-111 55,-76 21,21 14,83 v 132 l -28,118 -55,118 -49,70 -69,69 -70,49 -118,55 -250,83 -69,49 -49,49 -62,111 -42,76 -63,70 -111,111 -55,48 -83,91 -209,208 -49,56 -138,139 -49,55 -63,63 -48,55 -104,104 -49,56 h -14 l -13,28 -147,146 -48,55 -146,146 -83,62 -83,35 -125,14 -84,-14 -97,-48 -69,-63 -35,-55 -35,-105 v -201 l 35,-83 41,-63 63,-69 417,-417 55,-48 91,-91 34,-35 333,-333 35,-35 35,-28 49,-55 152,-153 56,-48 97,-84 118,-118 42,-69 28,-112 13,-159 28,-139 35,-76 42,-70 55,-69 56,-56 69,-49 111,-48 84,-21 z m -1812,2368 -98,21 -55,42 -42,48 -28,77 v 90 l 28,56 56,48 41,14 h 98 l 48,-21 56,-41 48,-56 28,-76 v -91 l -35,-69 -34,-28 -63,-14 z"
                 id="path983" />
            </g>
          </g>
          <g
             class="com.sun.star.drawing.PolyPolygonShape"
             id="g993">
            <g
               id="id17">
              <rect
                 class="BoundingBox"
                 stroke="none"
                 fill="none"
                 x="7078"
                 y="5537"
                 width="3931"
                 height="3876"
                 id="rect988" />
              <path
                 fill="#ffffff"
                 stroke="none"
                 d="m 8960,5537 h 243 l 208,28 188,48 14,7 -7,21 -63,42 -76,97 -21,35 -195,-28 -83,-7 h -278 l -145,21 -202,49 -146,48 -166,77 -146,83 -90,69 -63,49 -90,83 -98,97 -76,98 -55,69 -97,167 -84,174 -62,173 -42,167 -21,146 -7,90 v 111 l 14,160 21,132 56,194 41,111 56,111 62,112 77,104 83,97 104,111 97,83 70,56 76,63 139,83 104,55 132,56 208,69 146,28 139,14 h 215 l 167,-14 153,-35 201,-62 167,-77 146,-76 97,-63 90,-69 104,-90 90,-90 63,-77 104,-139 63,-111 55,-111 56,-132 48,-153 35,-208 7,-83 v -209 l -14,-118 -42,-201 -48,-160 -77,-167 -20,-41 69,-63 76,-104 36,35 55,90 97,229 49,181 27,159 14,125 v 320 l -27,201 -35,146 -56,160 -83,174 -90,152 -98,132 -48,63 -63,69 -62,70 -63,62 -55,49 -104,83 -105,70 -104,62 -97,56 -229,90 -208,56 -222,34 -56,7 h -299 l -194,-21 -215,-48 -146,-49 -160,-69 -132,-70 -139,-90 -132,-97 -76,-63 -97,-90 -49,-55 -62,-70 -84,-111 -62,-90 -77,-132 -76,-160 -62,-174 -42,-187 -21,-188 v -264 l 21,-201 42,-188 62,-187 97,-202 70,-125 111,-166 62,-76 84,-98 90,-90 76,-63 84,-69 125,-83 131,-77 84,-41 111,-49 187,-63 188,-41 146,-21 z"
                 id="path990" />
            </g>
          </g>
        </g>
        <g
           ooo:text-adjust="center"
           class="TextShape"
           id="g1008">
          <g
             id="id18">
            <rect
               class="BoundingBox"
               stroke="none"
               fill="none"
               x="11240"
               y="5700"
               width="10113"
               height="3571"
               id="rect997" />
            <text
               class="SVGTextShape"
               id="text1005"><tspan
                 class="TextParagraph"
                 font-family="'PT Sans', sans-serif"
                 font-size="2681px"
                 font-weight="700"
                 id="tspan1003"><tspan
                   class="TextPosition"
                   x="11490"
                   y="8238"
                   id="tspan1001"><tspan
                     fill="#ffffff"
                     stroke="none"
                     id="tspan999">eo-tools</tspan></tspan></tspan></text>
          </g>
        </g>
      </g>
    </g>
  </g>
</svg>
