<?xml version="1.0" encoding="UTF-8"?>
<!DOCTYPE svg PUBLIC "-//W3C//DTD SVG 1.1//EN" "http://www.w3.org/Graphics/SVG/1.1/DTD/svg11.dtd">
<svg version="1.2" viewBox="8090 877 11918 11605" preserveAspectRatio="xMidYMid" fill-rule="evenodd" stroke-width="28.222" stroke-linejoin="round" xmlns="http://www.w3.org/2000/svg" xmlns:ooo="http://xml.openoffice.org/svg/export" xmlns:xlink="http://www.w3.org/1999/xlink" xmlns:presentation="http://sun.com/xmlns/staroffice/presentation" xmlns:smil="http://www.w3.org/2001/SMIL20/" xmlns:anim="urn:oasis:names:tc:opendocument:xmlns:animation:1.0" xml:space="preserve">
 <defs class="EmbeddedBulletChars">
  <g id="bullet-char-template-57356" transform="scale(0.00048828125,-0.00048828125)">
   <path d="M 580,1141 L 1163,571 580,0 -4,571 580,1141 Z"/>
  </g>
  <g id="bullet-char-template-57354" transform="scale(0.00048828125,-0.00048828125)">
   <path d="M 8,1128 L 1137,1128 1137,0 8,0 8,1128 Z"/>
  </g>
  <g id="bullet-char-template-10146" transform="scale(0.00048828125,-0.00048828125)">
   <path d="M 174,0 L 602,739 174,1481 1456,739 174,0 Z M 1358,739 L 309,1346 659,739 1358,739 Z"/>
  </g>
  <g id="bullet-char-template-10132" transform="scale(0.00048828125,-0.00048828125)">
   <path d="M 2015,739 L 1276,0 717,0 1260,543 174,543 174,936 1260,936 717,1481 1274,1481 2015,739 Z"/>
  </g>
  <g id="bullet-char-template-10007" transform="scale(0.00048828125,-0.00048828125)">
   <path d="M 0,-2 C -7,14 -16,27 -25,37 L 356,567 C 262,823 215,952 215,954 215,979 228,992 255,992 264,992 276,990 289,987 310,991 331,999 354,1012 L 381,999 492,748 772,1049 836,1024 860,1049 C 881,1039 901,1025 922,1006 886,937 835,863 770,784 769,783 710,716 594,584 L 774,223 C 774,196 753,168 711,139 L 727,119 C 717,90 699,76 672,76 641,76 570,178 457,381 L 164,-76 C 142,-110 111,-127 72,-127 30,-127 9,-110 8,-76 1,-67 -2,-52 -2,-32 -2,-23 -1,-13 0,-2 Z"/>
  </g>
  <g id="bullet-char-template-10004" transform="scale(0.00048828125,-0.00048828125)">
   <path d="M 285,-33 C 182,-33 111,30 74,156 52,228 41,333 41,471 41,549 55,616 82,672 116,743 169,778 240,778 293,778 328,747 346,684 L 369,508 C 377,444 397,411 428,410 L 1163,1116 C 1174,1127 1196,1133 1229,1133 1271,1133 1292,1118 1292,1087 L 1292,965 C 1292,929 1282,901 1262,881 L 442,47 C 390,-6 338,-33 285,-33 Z"/>
  </g>
  <g id="bullet-char-template-9679" transform="scale(0.00048828125,-0.00048828125)">
   <path d="M 813,0 C 632,0 489,54 383,161 276,268 223,411 223,592 223,773 276,916 383,1023 489,1130 632,1184 813,1184 992,1184 1136,1130 1245,1023 1353,916 1407,772 1407,592 1407,412 1353,268 1245,161 1136,54 992,0 813,0 Z"/>
  </g>
  <g id="bullet-char-template-8226" transform="scale(0.00048828125,-0.00048828125)">
   <path d="M 346,457 C 273,457 209,483 155,535 101,586 74,649 74,723 74,796 101,859 155,911 209,963 273,989 346,989 419,989 480,963 531,910 582,859 608,796 608,723 608,648 583,586 532,535 482,483 420,457 346,457 Z"/>
  </g>
  <g id="bullet-char-template-8211" transform="scale(0.00048828125,-0.00048828125)">
   <path d="M -4,459 L 1135,459 1135,606 -4,606 -4,459 Z"/>
  </g>
  <g id="bullet-char-template-61548" transform="scale(0.00048828125,-0.00048828125)">
   <path d="M 173,740 C 173,903 231,1043 346,1159 462,1274 601,1332 765,1332 928,1332 1067,1274 1183,1159 1299,1043 1357,903 1357,740 1357,577 1299,437 1183,322 1067,206 928,148 765,148 601,148 462,206 346,322 231,437 173,577 173,740 Z"/>
  </g>
 </defs>
 <g ooo:name="page8" class="Page">
  <g class="Group">
   <g class="com.sun.star.drawing.CustomShape">
    <g id="id3">
     <rect class="BoundingBox" stroke="none" fill="none" x="8090" y="877" width="11918" height="11605"/>
     <path fill="rgb(51,92,103)" stroke="none" d="M 8716,877 L 8717,877 C 8607,877 8499,906 8403,961 8308,1016 8229,1095 8174,1190 8119,1286 8090,1394 8090,1504 L 8090,11854 8090,11854 C 8090,11964 8119,12072 8174,12168 8229,12263 8308,12342 8403,12397 8499,12452 8607,12481 8717,12481 L 19380,12481 19380,12481 C 19490,12481 19598,12452 19694,12397 19789,12342 19868,12263 19923,12168 19978,12072 20007,11964 20007,11854 L 20007,1503 20007,1504 20007,1504 C 20007,1394 19978,1286 19923,1190 19868,1095 19789,1016 19694,961 19598,906 19490,877 19380,877 L 8716,877 Z"/>
    </g>
   </g>
   <g class="com.sun.star.drawing.PolyPolygonShape">
    <g id="id4">
     <rect class="BoundingBox" stroke="none" fill="none" x="11714" y="9713" width="942" height="906"/>
     <path fill="rgb(255,255,255)" stroke="none" d="M 12544,9714 L 12563,9714 12618,10286 12655,10599 12563,10618 12304,10525 11880,10304 11770,10230 11714,10120 12138,9972 12415,9825 12544,9714 Z"/>
    </g>
   </g>
   <g class="com.sun.star.drawing.PolyPolygonShape">
    <g id="id5">
     <rect class="BoundingBox" stroke="none" fill="none" x="12801" y="8534" width="1017" height="2306"/>
     <path fill="rgb(255,255,255)" stroke="none" d="M 13743,8534 L 13798,8552 13817,8626 13798,10839 13558,10839 13060,10765 12931,10710 12931,10507 12821,10175 12802,10083 12802,9917 12821,9788 12821,9474 12968,9290 13116,9161 13669,8607 13743,8534 Z"/>
    </g>
   </g>
   <g class="com.sun.star.drawing.PolyPolygonShape">
    <g id="id6">
     <rect class="BoundingBox" stroke="none" fill="none" x="14036" y="6984" width="4188" height="3875"/>
     <path fill="rgb(255,255,255)" stroke="none" d="M 18002,6985 L 18223,7004 18223,7244 18131,7741 18020,8110 17854,8498 17707,8774 17578,8977 17338,9291 17154,9494 17061,9604 16914,9733 16729,9899 16397,10139 16102,10305 15826,10453 15346,10637 15107,10711 14627,10803 14221,10858 14166,10840 14148,10803 14148,8442 14092,8350 14092,8313 14037,8295 14074,8203 14203,8055 14387,7852 14516,7705 14664,7557 14775,7428 14848,7446 15014,7557 15070,7575 15402,7594 15494,7741 15604,8073 15586,8166 15494,8369 15494,8608 15568,8885 15660,9383 15752,9531 15881,9586 16084,9567 16287,9494 16490,9365 16619,9254 16748,9106 16895,8903 17043,8608 17172,8479 17301,8276 17338,8184 17356,7963 17338,7760 17430,7575 17651,7336 17817,7133 17836,7004 18002,6985 Z M 17578,8129 L 17449,8239 17264,8498 17154,8701 17098,8793 17117,8903 17172,8977 17301,8959 17430,8830 17670,8387 17707,8221 17670,8147 17578,8129 Z"/>
    </g>
   </g>
   <g class="com.sun.star.drawing.PolyPolygonShape">
    <g id="id7">
     <rect class="BoundingBox" stroke="none" fill="none" x="9778" y="6985" width="1624" height="2104"/>
     <path fill="rgb(255,255,255)" stroke="none" d="M 9796,6985 L 11401,6985 11309,7096 11161,7225 11032,7354 10977,7336 10884,7114 10829,7096 10792,7188 10792,7631 10645,7797 10497,8055 10442,8258 10423,8369 10423,8701 10479,8996 10497,9088 10405,9014 10220,8682 10054,8313 9889,7815 9796,7410 9778,7244 9778,7004 9796,6985 Z"/>
    </g>
   </g>
   <g class="com.sun.star.drawing.PolyPolygonShape">
    <g id="id8">
     <rect class="BoundingBox" stroke="none" fill="none" x="15033" y="6912" width="2509" height="2398"/>
     <path fill="rgb(255,255,255)" stroke="none" d="M 15254,6912 L 15365,6930 15383,6948 15512,6967 17541,6985 17522,7096 17338,7299 17172,7557 17098,7723 17098,8203 17024,8332 16858,8498 16692,8756 16527,8996 16379,9143 16195,9254 16047,9309 15918,9309 15881,9254 15807,8719 15752,8516 15770,8387 15826,8258 15844,8166 15844,8000 15789,7778 15697,7539 15549,7373 15438,7317 15143,7299 15033,7225 15033,7151 15180,7004 15254,6912 Z"/>
    </g>
   </g>
   <g class="com.sun.star.drawing.PolyPolygonShape">
    <g id="id9">
     <rect class="BoundingBox" stroke="none" fill="none" x="9778" y="5676" width="1974" height="997"/>
     <path fill="rgb(255,255,255)" stroke="none" d="M 9889,5676 L 9925,5713 9999,5897 10110,6045 10202,6118 10442,6248 10681,6487 10829,6561 10958,6561 11106,6487 11216,6469 11419,6469 11640,6524 11751,6598 11751,6653 11659,6672 10811,6653 9778,6653 9778,6450 9815,6082 9889,5676 Z"/>
    </g>
   </g>
   <g class="com.sun.star.drawing.PolyPolygonShape">
    <g id="id10">
     <rect class="BoundingBox" stroke="none" fill="none" x="15604" y="5453" width="2639" height="1201"/>
     <path fill="rgb(255,255,255)" stroke="none" d="M 16582,5454 L 16656,5473 16711,5510 16822,5528 17135,5547 17209,5768 17430,6155 17578,6377 17707,6487 17891,6487 18094,6414 18205,6358 18242,6580 18242,6653 15863,6653 15660,6635 15604,6616 15641,6524 15826,6340 15973,6211 16361,5823 16508,5584 16582,5454 Z"/>
    </g>
   </g>
   <g class="com.sun.star.drawing.PolyPolygonShape">
    <g id="id11">
     <rect class="BoundingBox" stroke="none" fill="none" x="16785" y="5141" width="277" height="130"/>
     <path fill="rgb(255,255,255)" stroke="none" d="M 16932,5141 L 17024,5159 17061,5215 17061,5270 16840,5270 16785,5215 16858,5159 16932,5141 Z"/>
    </g>
   </g>
   <g class="com.sun.star.drawing.PolyPolygonShape">
    <g id="id12">
     <rect class="BoundingBox" stroke="none" fill="none" x="17189" y="4827" width="998" height="1385"/>
     <path fill="rgb(255,255,255)" stroke="none" d="M 17744,4827 L 17817,4901 17983,5252 18112,5657 18186,5989 18186,6192 18094,6174 17965,6211 17854,6211 17762,6137 17578,5860 17375,5565 17356,5362 17246,5178 17190,5123 17209,5067 17596,4920 17744,4827 Z"/>
    </g>
   </g>
   <g class="com.sun.star.drawing.PolyPolygonShape">
    <g id="id13">
     <rect class="BoundingBox" stroke="none" fill="none" x="10018" y="2743" width="3818" height="3708"/>
     <path fill="rgb(255,255,255)" stroke="none" d="M 12729,2743 L 12839,2743 13134,2909 13245,2983 13263,3038 13171,3223 13171,3463 13282,3629 13337,3665 13522,3665 13632,3592 13761,3499 13798,3499 13817,4477 13835,4569 13706,4717 13300,5123 13171,5270 12839,5602 12692,5731 12102,6321 11991,6450 11788,6340 11530,6248 11419,6229 11216,6229 10940,6284 10866,6284 10811,6082 10718,6008 10755,5916 10774,5786 10700,5713 10589,5731 10552,5768 10479,5750 10460,5731 10460,5565 10534,5418 10608,5381 10811,5399 10940,5584 10977,5620 11124,5620 11235,5473 11309,5252 11567,5030 11696,4920 11825,4772 11954,4643 12102,4551 12378,4459 12655,4385 12765,4311 12876,4182 12950,4016 12950,3813 12876,3684 12821,3629 12821,3481 12950,3260 12950,3094 12876,3001 12802,3001 12747,3223 12673,3315 12636,3315 12563,3131 12526,3075 12433,3112 12194,3260 11880,3426 11770,3518 11696,3647 11696,3831 11770,3905 11917,3905 12046,3831 12175,3665 12286,3518 12433,3426 12470,3426 12673,3813 12692,3831 12692,3942 12581,4108 12489,4145 12212,4219 11917,4348 11696,4514 11216,4993 11106,5178 11069,5270 10977,5252 10829,5141 10755,5123 10608,5123 10460,5178 10368,5270 10294,5381 10276,5436 10276,5694 10386,5860 10276,5879 10165,5786 10091,5602 10018,5399 10036,5288 10147,5012 10368,4606 10589,4274 10755,4071 10921,3887 11124,3684 11216,3592 11382,3444 11659,3241 12028,3020 12341,2872 12636,2780 12729,2743 Z M 11143,5713 L 11087,5768 11106,5879 11179,5952 11290,5971 11382,5916 11401,5897 11401,5786 11309,5713 11143,5713 Z"/>
    </g>
   </g>
   <g class="com.sun.star.drawing.PolyPolygonShape">
    <g id="id14">
     <rect class="BoundingBox" stroke="none" fill="none" x="13337" y="2577" width="462" height="850"/>
     <path fill="rgb(255,255,255)" stroke="none" d="M 13577,2577 L 13780,2577 13798,2596 13798,3223 13614,3333 13522,3426 13429,3426 13374,3370 13374,3241 13448,3057 13448,2928 13374,2835 13337,2817 13337,2670 13356,2633 13577,2577 Z"/>
    </g>
   </g>
   <g class="com.sun.star.drawing.PolyPolygonShape">
    <g id="id15">
     <rect class="BoundingBox" stroke="none" fill="none" x="14148" y="2577" width="775" height="1735"/>
     <path fill="rgb(255,255,255)" stroke="none" d="M 14166,2577 L 14369,2577 14922,2651 14904,2780 14830,3278 14811,3610 14738,3758 14572,3942 14332,4163 14203,4311 14148,4293 14148,2614 14166,2577 Z"/>
    </g>
   </g>
   <g class="com.sun.star.drawing.PolyPolygonShape">
    <g id="id16">
     <rect class="BoundingBox" stroke="none" fill="none" x="10754" y="1655" width="7599" height="8023"/>
     <path fill="rgb(255,255,255)" stroke="none" d="M 16729,1655 L 16969,1674 17043,1710 17006,1784 16785,2006 16637,2135 16379,2393 16231,2688 16195,2891 16213,3094 16287,3297 16434,3499 16619,3629 16858,3721 17209,3721 17430,3647 17578,3536 17744,3389 17891,3204 18112,2909 18260,2706 18315,2762 18352,2983 18352,3333 18278,3647 18131,3961 18002,4145 17817,4329 17633,4459 17320,4606 16656,4827 16471,4957 16342,5086 16176,5381 16065,5584 15900,5768 15605,6063 15458,6192 15237,6432 14683,6985 14554,7133 14185,7502 14056,7649 13890,7815 13761,7962 13485,8238 13356,8386 13319,8386 13282,8460 12894,8847 12765,8995 12378,9382 12157,9548 11936,9640 11604,9677 11382,9640 11124,9511 10940,9345 10847,9198 10755,8921 10755,8386 10847,8165 10958,7999 11124,7815 12231,6709 12378,6580 12618,6340 12710,6248 13595,5362 13687,5270 13780,5196 13909,5049 14315,4643 14462,4514 14720,4293 15034,3979 15144,3795 15218,3499 15255,3075 15329,2706 15421,2504 15532,2319 15679,2135 15827,1987 16010,1858 16305,1729 16527,1674 16729,1655 Z M 11917,7943 L 11659,7999 11511,8109 11401,8238 11327,8441 11327,8681 11401,8829 11548,8958 11659,8995 11917,8995 12046,8939 12194,8829 12323,8681 12397,8478 12397,8238 12304,8054 12212,7980 12046,7943 11917,7943 Z"/>
    </g>
   </g>
   <g class="com.sun.star.drawing.PolyPolygonShape">
    <g id="id17">
     <rect class="BoundingBox" stroke="none" fill="none" x="8782" y="1526" width="10438" height="10292"/>
     <path fill="rgb(255,255,255)" stroke="none" d="M 13780,1526 L 14424,1526 14977,1600 15475,1729 15512,1747 15494,1803 15328,1913 15125,2172 15070,2264 14553,2190 14332,2172 13595,2172 13208,2227 12673,2356 12286,2485 11843,2688 11456,2909 11216,3094 11050,3223 10811,3444 10552,3702 10350,3961 10202,4145 9944,4588 9723,5049 9557,5510 9446,5952 9391,6340 9372,6580 9372,6875 9409,7299 9464,7649 9612,8165 9723,8460 9870,8755 10036,9050 10239,9327 10460,9585 10737,9880 10995,10101 11179,10249 11382,10415 11751,10636 12028,10784 12378,10931 12931,11116 13319,11189 13687,11226 14258,11226 14701,11189 15107,11097 15641,10931 16084,10728 16471,10525 16729,10359 16969,10175 17246,9935 17485,9696 17651,9493 17928,9124 18094,8829 18242,8534 18389,8183 18518,7777 18610,7225 18629,7004 18629,6450 18592,6137 18481,5602 18352,5178 18149,4735 18094,4625 18278,4459 18481,4182 18574,4274 18721,4514 18979,5123 19108,5602 19182,6026 19219,6358 19219,7207 19145,7740 19053,8128 18905,8552 18684,9013 18444,9419 18186,9769 18057,9935 17891,10120 17725,10304 17559,10470 17412,10599 17135,10821 16858,11005 16582,11171 16324,11319 15715,11558 15162,11706 14572,11798 14424,11817 13632,11817 13116,11761 12544,11632 12157,11503 11733,11319 11382,11134 11013,10894 10663,10636 10460,10470 10202,10230 10073,10083 9907,9898 9686,9603 9520,9364 9317,9013 9114,8589 8948,8128 8837,7631 8782,7133 8782,6432 8837,5897 8948,5399 9114,4901 9372,4366 9557,4034 9852,3592 10018,3389 10239,3131 10479,2891 10681,2725 10903,2540 11235,2319 11585,2116 11806,2006 12102,1876 12599,1710 13097,1600 13485,1544 13780,1526 Z"/>
    </g>
   </g>
  </g>
 </g>
</svg>